<?xml version="1.0" ?><svg data-name="Layer 1" id="Layer_1" viewBox="0 0 512 512" xmlns="http://www.w3.org/2000/svg"><title/><path d="M421.13,257.61a5.75,5.75,0,0,0-5.48-5.19c-98-4-138,49.53-154.15,87.4-.93-19.53-2.74-39.93-5.8-60.54a5.23,5.23,0,0,0,0-.56c0-.05-.13-.56-.22-.93-1-6.87-2.25-13.77-3.58-20.66,44.61-4.48,77.42-19.78,97.32-45.78,28-36.62,20-80.36,19.7-82.21a5.75,5.75,0,0,0-5.34-4.66c-36.53-1.91-65.87,7.61-87.26,28.47-20.22,19.71-29.35,45.55-33.51,66-2.91-10.19-6.18-20.28-9.94-30.17A261.05,261.05,0,0,1,224,161.21C315.1,119.37,309.15,24,309.07,23a5.75,5.75,0,0,0-5.74-5.33h0c-24.22.1-59.36,13.45-79.3,42.51-22.34,32.55-23,77.16-1.9,132.61a371.39,371.39,0,0,1,11.68,36.44c-20.86-31.76-59.7-66-129.16-59.5a5.78,5.78,0,0,0-5.14,4.81c-.32,2-7.57,49.4,24.77,82.74,19.91,20.52,50,30.83,89.81,30.83a278.49,278.49,0,0,0,31-2,637.32,637.32,0,0,1,5.74,81.42,95.78,95.78,0,0,0-12.69-19.13c-27-31.66-74.47-47.44-141.32-46.33a5.75,5.75,0,0,0-5.62,5c-.28,2.14-6.58,52.89,29,89.5,23,23.65,57.69,35.56,103.45,35.56,8,0,16.44-.47,25.11-1.2-2.5,33.92-6.33,55.95-6.43,56.54A5.75,5.75,0,0,0,247,494.2a6.06,6.06,0,0,0,1,.09,5.75,5.75,0,0,0,5.65-4.73c.12-.65,4.48-25.68,7-63.68,0-.08.08-.12.1-.19A83.45,83.45,0,0,0,261.5,410c.4-8.68.66-17.9.76-27.49,7,.47,13.88.91,20.41.91,46.93,0,82.81-12.27,106.88-36.62C425.87,310,421.34,259.74,421.13,257.61ZM284.35,161.19c17.34-16.91,40.89-25.45,70.09-25.45,1.24,0,2.49,0,3.75,0,1.1,11.43,1.84,42.59-18.18,68.67-17.9,23.3-47.81,37.19-89,41.34C251.77,230.21,256.44,188.41,284.35,161.19Zm-63-11.46c-6.66-33.71-2.63-61.53,12.1-83,18.06-26.3,47.27-35.47,64.24-37.19C297.59,49.51,291.67,116.2,221.39,149.73ZM132.6,249.38c-23-23.63-23-56.69-22.2-68.52,96.44-6.43,125.87,71.2,132.48,94.08C191.75,280.67,154.65,272.05,132.6,249.38Zm-4.08,139.31c-25.64-26.31-26.81-62.11-26.28-75.1h.16c60.19,0,102.86,14.19,126.84,42.2,17.07,19.93,20.39,42.51,20.67,56-.13,2.6-.26,5.18-.4,7.69C194,424.47,153.27,414.09,128.52,388.69Zm252.84-50c-24.94,25.23-64.59,36.11-118,32.53,4.41-23.76,28.58-109.93,146.55-107.45C410,276.71,407.62,312.12,381.36,338.69Z"/></svg>