<?xml version="1.0" ?><svg data-name="Layer 1" id="Layer_1" viewBox="0 0 512 512" xmlns="http://www.w3.org/2000/svg"><title/><path d="M51.86,259.52c.12.22.36.31.5.51,25.83,44.08,73.58,73.83,128.26,73.83a147.61,147.61,0,0,0,63.6-14.49,5.12,5.12,0,0,0,.92-.22,5.37,5.37,0,0,0,.7-.56,149.31,149.31,0,0,0,36.17-25,5.59,5.59,0,0,0,1.48-1.34A149.13,149.13,0,0,0,308.88,260c.15-.19.39-.28.52-.51a5.2,5.2,0,0,0,.25-.76A147.88,147.88,0,0,0,278.32,73.37a5.47,5.47,0,0,0-1.4-1.27,148.5,148.5,0,0,0-50.3-28.24c-.21-.1-.43-.16-.65-.24a148.18,148.18,0,0,0-45.35-7.13c-82,0-148.68,66.7-148.68,148.69A147.61,147.61,0,0,0,51.6,258.77,4.74,4.74,0,0,0,51.86,259.52Zm-8.49-74.34a136.31,136.31,0,0,1,4-32.33L174.9,87.09v43.17L44,197.76C43.63,193.61,43.37,189.43,43.37,185.18Zm224.79,43.94L229.88,207V57.21a137.49,137.49,0,0,1,38.28,22.34ZM272.34,287a138,138,0,0,1-27.57,19.42,190.57,190.57,0,0,0-107.13-89.84l43-24.81,29.31,16.92C252.17,240.25,268.2,276.05,272.34,287ZM195,321.66c-30.61-57.61-76.53-74.62-101.51-79.6l30.29-17.49c11.34,2.71,73.85,20.51,110.64,86.84A136.31,136.31,0,0,1,195,321.66Zm23.41-121.24-32.12-18.54V48.21a136.14,136.14,0,0,1,32.12,5.14ZM174.9,143.13v38.75L59.09,248.75a136.16,136.16,0,0,1-13.39-39Zm-110,115.48,12.49-7.21c10.08.45,67.89,6.07,104.93,71-.56,0-1.11.08-1.67.08A137.11,137.11,0,0,1,64.87,258.61Zm216.32,19.66c-4.12-9.74-12.66-26.33-28.16-44.69l43.36,25A137.46,137.46,0,0,1,281.19,278.27Zm36.69-93.09a136.35,136.35,0,0,1-15.72,63.57l-22.57-13V90.32A136.65,136.65,0,0,1,317.88,185.18Zm-143-137v26L52.06,137.57A137.29,137.29,0,0,1,174.9,48.21Z"/><path d="M353.84,358.84c.19.31.51.46.74.73a65.17,65.17,0,0,0,112.33,0c.23-.26.55-.41.74-.72a5.63,5.63,0,0,0,.55-1.65,64.85,64.85,0,0,0,8.24-31.2A65.7,65.7,0,1,0,345,326a64.77,64.77,0,0,0,8.24,31.18A5.4,5.4,0,0,0,353.84,358.84Zm56.91,21.41A54.11,54.11,0,0,1,367,357.83l43.74-25.24,43.72,25.24A54.09,54.09,0,0,1,410.75,380.25ZM465,326a53.89,53.89,0,0,1-4.75,22l-43.8-25.29V272.3A54.15,54.15,0,0,1,465,326ZM405,272.3v50.39L361.23,348A53.81,53.81,0,0,1,405,272.3Z"/><path d="M474.49,464.08h-57V421.32a94.89,94.89,0,0,0,60.87-27.69,5.72,5.72,0,0,0-8.1-8.08,84.21,84.21,0,0,1-119.1,0,5.72,5.72,0,0,0-8.1,8.08,94.94,94.94,0,0,0,63,27.8v42.65H188.43V368.54A182.28,182.28,0,0,0,310.56,315.1a5.72,5.72,0,0,0-8.1-8.08,172.29,172.29,0,0,1-243.67,0,5.72,5.72,0,0,0-8.1,8.08A182.36,182.36,0,0,0,177,368.74v95.34H37.51a5.72,5.72,0,1,0,0,11.43h437a5.72,5.72,0,1,0,0-11.43Z"/></svg>