<?xml version="1.0" ?><svg data-name="Layer 1" id="Layer_1" viewBox="0 0 512 512" xmlns="http://www.w3.org/2000/svg"><title/><path d="M185.74,376.63c.1-.14.27-.21.36-.36,27.56-49.63,81.38-72.65,81.91-72.88a5.72,5.72,0,0,0-4.4-10.55c-2.1.88-46.26,19.71-76.79,61.22V292.49a5.72,5.72,0,0,0-11.43,0v61.57c-30.54-41.51-74.7-60.34-76.8-61.22a5.72,5.72,0,0,0-4.4,10.55c.53.23,54.35,23.25,81.91,72.88.09.15.26.22.36.36a5.09,5.09,0,0,0,.76.78,5.4,5.4,0,0,0,1.94,1.27c.2.08.3.29.51.34a5.48,5.48,0,0,0,2.86,0c.21,0,.32-.26.52-.34a5.45,5.45,0,0,0,1.93-1.27A5.09,5.09,0,0,0,185.74,376.63Z"/><path d="M454.33,352.11c1.46-6.58,6.24-19,22.35-29.55a5.7,5.7,0,0,0,.67-9.05c-.79-.71-20-17.43-56.82-17.43s-56,16.72-56.82,17.43a5.7,5.7,0,0,0,.67,9.05c16.1,10.51,20.89,23,22.36,29.55C344,361,340.57,386,340.42,387.24a5.75,5.75,0,0,0,3.12,5.75c34.44,17.21,43.83,46.53,48.34,60.62a66.07,66.07,0,0,0,2.52,7c.2.43.61.65.9,1H220.79c1.51-17.8,14.45-95.06,126.13-131.33a5.7,5.7,0,0,0,3.86-6.4c-.14-.82-13.79-70.49-114.54-89.72,8.3-13,28.9-37.33,62.17-51.13a5.72,5.72,0,0,0,3.49-5.91c-.22-1.92-5.53-39.53-72.22-52.21,1.48-9.47,7.92-32.09,36.56-50.8a5.71,5.71,0,0,0,.67-9.06c-1.19-1.06-30-26.17-85.81-26.17S96.48,64,95.27,65.09a5.72,5.72,0,0,0,.67,9.06C124.6,92.86,131,115.48,132.52,125c-66.69,12.68-72,50.29-72.24,52.21a5.72,5.72,0,0,0,3.5,5.91c33.27,13.81,53.87,38.15,62.17,51.13C25.2,253.44,11.55,323.1,11.41,323.92a5.7,5.7,0,0,0,3.85,6.4C126.94,366.59,139.9,443.85,141.41,461.65H37.51a5.72,5.72,0,0,0,0,11.43h437a5.72,5.72,0,0,0,0-11.43H445.77c.29-.36.69-.58.9-1a66.47,66.47,0,0,0,2.51-7c4.51-14.09,13.9-43.41,48.34-60.62a5.73,5.73,0,0,0,3.12-5.75C500.5,386,497.05,361,454.33,352.11ZM377.42,318c7.57-4.3,22.08-10.45,43.11-10.45s35.54,6.15,43.12,10.45c-14.34,11.79-19,24.79-20.59,32.34-5.12-.62-10.75-1-16.81-1.16v-19.9a5.72,5.72,0,1,0-11.43,0v19.9c-6.06.17-11.7.54-16.81,1.16C396.43,342.75,391.76,329.75,377.42,318ZM108.92,69.31c10.61-6.74,35-19,72.18-19s61.57,12.22,72.17,19C227.1,89.1,220.22,112,218.41,123A279.83,279.83,0,0,0,188.72,121c2.71-7.68,8.44-19.92,18.9-25.33a5.71,5.71,0,1,0-5.24-10.15,44.2,44.2,0,0,0-15.56,14.13V87.08a5.72,5.72,0,0,0-11.43,0V99.62A44.26,44.26,0,0,0,159.8,85.47a5.72,5.72,0,0,0-5.24,10.17C165,101,170.73,113.27,173.47,121A279.24,279.24,0,0,0,143.8,123C142,112,135.1,89.1,108.92,69.31ZM72.81,174.55c4.38-11.2,24.11-42.39,108.29-42.39S285,163.41,289.39,174.54c-33.43,15.34-56.68,42-65.28,57.73a302.67,302.67,0,0,0-33.06-2.67c19.2-30.61,40.66-44.54,40.89-44.69a5.72,5.72,0,0,0-6.06-9.7c-.95.59-20.06,12.71-39.06,39.81V168.27a5.72,5.72,0,1,0-11.43,0V215c-19-27.11-38.13-39.23-39.09-39.82a5.71,5.71,0,0,0-6,9.7c.23.15,21.6,13.93,40.89,44.69a300.08,300.08,0,0,0-33.07,2.68C129.47,216.51,106.22,189.88,72.81,174.55ZM23.87,321.16c5.55-18.09,33.67-80.52,157.23-80.52s151.67,62.43,157.22,80.52C224.78,360.3,211,443.58,209.38,461.65H152.82C151.17,443.58,137.41,360.3,23.87,321.16Zm414.43,129a55.78,55.78,0,0,1-2,5.62,5.68,5.68,0,0,0,.68,5.9H404a5.68,5.68,0,0,0,.69-5.9,55.32,55.32,0,0,1-2-5.62c-4.42-13.81-14.54-45.44-49.75-65.07,3.63-7.51,17.41-24.67,67.52-24.67s63.88,17.18,67.51,24.68C452.84,404.7,442.72,436.32,438.3,450.13Z"/><path d="M448.42,384.49c-.56.36-10.94,6.92-22.17,21.33v-24.1a5.72,5.72,0,0,0-11.43,0v24.1c-11.24-14.41-21.61-21-22.18-21.33a5.71,5.71,0,1,0-6,9.7c.16.1,16,10.15,28.93,33.4.09.15.26.22.36.36a5.16,5.16,0,0,0,.76.79,5.51,5.51,0,0,0,1.94,1.26c.2.08.3.29.51.34a5.46,5.46,0,0,0,1.43.19,5.41,5.41,0,0,0,1.43-.19c.21,0,.32-.26.52-.34a5.56,5.56,0,0,0,1.93-1.26,5.16,5.16,0,0,0,.76-.79c.1-.14.28-.21.36-.36,12.8-23,28.79-33.31,29-33.4a5.72,5.72,0,0,0-6.06-9.7Z"/></svg>